<svg width="541" height="253" viewBox="0 0 541 253" fill="none" xmlns="http://www.w3.org/2000/svg">
<path d="M5.0552 44.2456C5.0552 30.135 8.83873 19.2597 16.4058 11.6195C22.9858 4.96633 31.3571 1.63975 41.5196 1.63975C55.1184 1.63975 65.0616 6.09956 71.3492 15.0192C74.822 20.0273 76.6863 25.0537 76.9422 30.0985H60.0534C58.9567 26.2235 57.5493 23.2991 55.8312 21.3251C52.7605 17.8157 48.2093 16.061 42.1776 16.061C36.0363 16.061 31.1926 18.5468 27.6467 23.5184C24.1008 28.4534 22.3278 35.4539 22.3278 44.5197C22.3278 53.5856 24.1922 60.3849 27.9209 64.9179C31.6861 69.4142 36.4566 71.6624 42.2325 71.6624C48.1545 71.6624 52.6691 69.725 55.7764 65.85C57.4945 63.7664 58.9202 60.6408 60.0534 56.4735H76.7777C75.3155 65.2834 71.5685 72.4484 65.5368 77.9683C59.5416 83.4882 51.8466 86.2482 42.4518 86.2482C30.827 86.2482 21.6881 82.5195 15.0349 75.0621C8.38178 67.5682 5.0552 57.296 5.0552 44.2456ZM125.47 71.9366C132.16 71.9366 137.46 69.4691 141.372 64.534C145.32 59.599 147.294 52.5803 147.294 43.4779C147.294 34.412 145.32 27.4116 141.372 22.4766C137.46 17.505 132.16 15.0192 125.47 15.0192C118.78 15.0192 113.443 17.4867 109.459 22.4217C105.474 27.3568 103.482 34.3755 103.482 43.4779C103.482 52.5803 105.474 59.599 109.459 64.534C113.443 69.4691 118.78 71.9366 125.47 71.9366ZM164.183 43.4779C164.183 57.9905 160.107 69.1035 151.955 76.8168C145.85 83.1044 137.022 86.2482 125.47 86.2482C113.918 86.2482 105.09 83.1044 98.9854 76.8168C90.7969 69.1035 86.7026 57.9905 86.7026 43.4779C86.7026 28.6728 90.7969 17.5598 98.9854 10.139C105.09 3.85138 113.918 0.707577 125.47 0.707577C137.022 0.707577 145.85 3.85138 151.955 10.139C160.107 17.5598 164.183 28.6728 164.183 43.4779ZM176.849 3.17509H194.561L226.748 59.599V3.17509H242.485V84H225.596L192.587 26.5891V84H176.849V3.17509ZM317.004 3.17509V17.4867H292.823V84H275.824V17.4867H251.533V3.17509H317.004ZM340.692 53.4576H361.2L351.111 21.6541L340.692 53.4576ZM341.734 3.17509H360.816L389.44 84H371.125L365.916 67.3854H336.141L330.548 84H312.892L341.734 3.17509ZM396.239 44.2456C396.239 30.135 400.023 19.2597 407.59 11.6195C414.17 4.96633 422.541 1.63975 432.703 1.63975C446.302 1.63975 456.245 6.09956 462.533 15.0192C466.006 20.0273 467.87 25.0537 468.126 30.0985H451.237C450.141 26.2235 448.733 23.2991 447.015 21.3251C443.944 17.8157 439.393 16.061 433.361 16.061C427.22 16.061 422.376 18.5468 418.83 23.5184C415.285 28.4534 413.512 35.4539 413.512 44.5197C413.512 53.5856 415.376 60.3849 419.105 64.9179C422.87 69.4142 427.64 71.6624 433.416 71.6624C439.338 71.6624 443.853 69.725 446.96 65.85C448.678 63.7664 450.104 60.6408 451.237 56.4735H467.961C466.499 65.2834 462.752 72.4484 456.721 77.9683C450.725 83.4882 443.03 86.2482 433.636 86.2482C422.011 86.2482 412.872 82.5195 406.219 75.0621C399.566 67.5682 396.239 57.296 396.239 44.2456ZM539.629 3.17509V17.4867H515.447V84H498.449V17.4867H474.158V3.17509H539.629ZM434.677 132.175H458.969V213H443.231V158.331C443.231 156.759 443.25 154.566 443.286 151.751C443.323 148.899 443.341 146.706 443.341 145.171L428.043 213H411.647L396.458 145.171C396.458 146.706 396.477 148.899 396.513 151.751C396.55 154.566 396.568 156.759 396.568 158.331V213H380.831V132.175H405.396L420.092 195.727L434.677 132.175ZM534.42 146.487H491.65V163.65H530.911V177.687H491.65V198.469H536.394V213H475.145V132.175H534.42V146.487Z" fill="black"/>
<g filter="url(#filter0_bd_22_271)">
<path d="M249.294 81.7263L301.15 111.75L314.876 47.6071L361.006 57.4784L347.28 121.621L406.882 115.448L410.928 157.787L350.374 163.199L376.104 224.095L336.79 241.012L310.434 183.044L261.596 224.921L232.648 193.397L281.312 148.421L228.276 118.701L249.294 81.7263Z" fill="#4619FB" fill-opacity="0.5" shape-rendering="crispEdges"/>
</g>
<defs>
<filter id="filter0_bd_22_271" x="220.276" y="39.6071" width="198.652" height="209.404" filterUnits="userSpaceOnUse" color-interpolation-filters="sRGB">
<feFlood flood-opacity="0" result="BackgroundImageFix"/>
<feGaussianBlur in="BackgroundImageFix" stdDeviation="4"/>
<feComposite in2="SourceAlpha" operator="in" result="effect1_backgroundBlur_22_271"/>
<feColorMatrix in="SourceAlpha" type="matrix" values="0 0 0 0 0 0 0 0 0 0 0 0 0 0 0 0 0 0 127 0" result="hardAlpha"/>
<feOffset dy="2"/>
<feGaussianBlur stdDeviation="1"/>
<feComposite in2="hardAlpha" operator="out"/>
<feColorMatrix type="matrix" values="0 0 0 0 0 0 0 0 0 0 0 0 0 0 0 0 0 0 0.5 0"/>
<feBlend mode="normal" in2="effect1_backgroundBlur_22_271" result="effect2_dropShadow_22_271"/>
<feBlend mode="normal" in="SourceGraphic" in2="effect2_dropShadow_22_271" result="shape"/>
</filter>
</defs>
</svg>
