<svg width="418" height="202" viewBox="0 0 418 202" fill="none" xmlns="http://www.w3.org/2000/svg">
<path d="M6.75977 24.1777L35.1299 33.4082V0.694336H58.6133V33.4082L86.9834 24.1777L93.3633 44.4033L64.4502 53.3623L83.3184 80.375L65.9434 92.7275L47.0752 67.208L27.6641 92.7275L10.2891 80.375L29.293 53.3623L0.379883 44.4033L6.75977 24.1777Z" fill="#4619FB"/>
<path d="M129.167 36.666V90.4199H176.541C185.952 90.4199 193.011 89.334 197.716 87.1621C206.042 83.3613 210.205 75.8503 210.205 64.6289C210.205 52.5026 206.178 44.3581 198.124 40.1953C193.599 37.8424 186.812 36.666 177.762 36.666H129.167ZM186.45 1.91602C200.477 2.1875 211.245 3.9069 218.756 7.07422C226.358 10.2415 232.783 14.902 238.032 21.0557C242.376 26.1234 245.814 31.734 248.348 37.8877C250.882 44.0413 252.149 51.0547 252.149 58.9277C252.149 68.4297 249.751 77.7959 244.955 87.0264C240.159 96.1663 232.24 102.637 221.2 106.438C230.43 110.148 236.946 115.442 240.747 122.319C244.638 129.106 246.584 139.513 246.584 153.54V166.979C246.584 176.118 246.946 182.317 247.67 185.575C248.756 190.733 251.289 194.534 255.271 196.978V202H209.255C207.988 197.566 207.083 193.991 206.54 191.276C205.454 185.666 204.866 179.919 204.775 174.037L204.504 155.44C204.323 142.681 201.97 134.174 197.445 129.921C193.011 125.668 184.64 123.541 172.333 123.541H129.167V202H88.3082V1.91602H186.45ZM292.703 36.666V80.7822H341.842C350.62 80.7822 357.724 79.1533 363.154 75.8955C368.674 72.5472 371.434 66.665 371.434 58.249C371.434 48.9281 367.814 42.7744 360.574 39.7881C354.33 37.7067 346.367 36.666 336.684 36.666H292.703ZM292.703 113.903V167.25H341.842C350.62 167.25 357.452 166.074 362.339 163.721C371.208 159.377 375.642 151.051 375.642 138.744C375.642 128.337 371.343 121.188 362.746 117.297C357.95 115.125 351.208 113.994 342.521 113.903H292.703ZM349.987 1.91602C374.511 2.27799 391.886 9.38184 402.112 23.2275C408.265 31.734 411.342 41.9147 411.342 53.7695C411.342 65.9863 408.265 75.805 402.112 83.2256C398.673 87.3883 393.605 91.1891 386.908 94.6279C397.134 98.3382 404.826 104.22 409.985 112.274C415.233 120.328 417.858 130.102 417.858 141.595C417.858 153.45 414.871 164.083 408.899 173.494C405.098 179.738 400.347 184.987 394.646 189.24C388.221 194.127 380.619 197.475 371.841 199.285C363.154 201.095 353.697 202 343.471 202H252.795V1.91602H349.987Z" fill="black"/>
</svg>
