<svg width="30" height="30" viewBox="0 0 30 30" fill="none" xmlns="http://www.w3.org/2000/svg">
<path d="M15 0C13.0302 0 11.0796 0.397619 9.25975 1.17015C7.43986 1.94269 5.78628 3.07501 4.3934 4.50247C1.58035 7.38536 0 11.2954 0 15.3724C0 22.167 4.305 27.9317 10.26 29.9762C11.01 30.0992 11.25 29.6226 11.25 29.2076V26.6096C7.095 27.532 6.21 24.5497 6.21 24.5497C5.52 22.7665 4.545 22.29 4.545 22.29C3.18 21.3369 4.65 21.3676 4.65 21.3676C6.15 21.4752 6.945 22.951 6.945 22.951C8.25 25.2876 10.455 24.5958 11.31 24.2269C11.445 23.2277 11.835 22.5513 12.255 22.167C8.925 21.7827 5.43 20.4607 5.43 14.6038C5.43 12.8974 6 11.5293 6.975 10.4379C6.825 10.0536 6.3 8.45482 7.125 6.37955C7.125 6.37955 8.385 5.96449 11.25 7.94753C12.435 7.60934 13.725 7.44024 15 7.44024C16.275 7.44024 17.565 7.60934 18.75 7.94753C21.615 5.96449 22.875 6.37955 22.875 6.37955C23.7 8.45482 23.175 10.0536 23.025 10.4379C24 11.5293 24.57 12.8974 24.57 14.6038C24.57 20.476 21.06 21.7673 17.715 22.1516C18.255 22.6282 18.75 23.5659 18.75 24.9955V29.2076C18.75 29.6226 18.99 30.1145 19.755 29.9762C25.71 27.9163 30 22.167 30 15.3724C30 13.3537 29.612 11.3547 28.8582 9.48964C28.1044 7.62457 26.9995 5.92993 25.6066 4.50247C24.2137 3.07501 22.5601 1.94269 20.7403 1.17015C18.9204 0.397619 16.9698 0 15 0Z" fill="#4619FB"/>
</svg>
