<svg width="64" height="30" viewBox="0 0 64 30" fill="none" xmlns="http://www.w3.org/2000/svg">
<path d="M1.89925 3.53179L6.12204 4.90571V0.0363683H9.61746V4.90571L13.8402 3.53179L14.7899 6.5423L10.4863 7.87581L13.2947 11.8966L10.7085 13.7352L7.90005 9.93669L5.01078 13.7352L2.42457 11.8966L5.25323 7.87581L0.949623 6.5423L1.89925 3.53179Z" fill="#4619FB"/>
<path d="M20.1191 5.39062V13.3917H27.1705C28.5714 13.3917 29.622 13.2301 30.3225 12.9068C31.5617 12.3411 32.1813 11.2231 32.1813 9.5528C32.1813 7.74784 31.5819 6.53556 30.3831 5.91595C29.7096 5.56573 28.6994 5.39062 27.3524 5.39062H20.1191ZM28.6455 0.218211C30.7333 0.258621 32.3362 0.514547 33.4542 0.985991C34.5857 1.45744 35.542 2.15113 36.3233 3.06708C36.9698 3.82139 37.4817 4.65652 37.8588 5.57247C38.236 6.48842 38.4246 7.53233 38.4246 8.7042C38.4246 10.1185 38.0676 11.5127 37.3537 12.8866C36.6398 14.247 35.4612 15.2101 33.8179 15.7759C35.1918 16.3281 36.1616 17.1161 36.7274 18.1398C37.3066 19.1501 37.5962 20.6991 37.5962 22.7869V24.7872C37.5962 26.1476 37.6501 27.0703 37.7578 27.5552C37.9195 28.323 38.2966 28.8887 38.8893 29.2524V30H32.0399C31.8513 29.34 31.7166 28.8079 31.6358 28.4038C31.4741 27.5687 31.3866 26.7134 31.3731 25.8378L31.3327 23.0698C31.3058 21.1705 30.9556 19.9044 30.2821 19.2713C29.622 18.6382 28.3761 18.3217 26.5442 18.3217H20.1191V30H14.0374V0.218211H28.6455ZM44.4609 5.39062V11.9572H51.7751C53.0816 11.9572 54.139 11.7147 54.9472 11.2298C55.7689 10.7314 56.1797 9.85587 56.1797 8.60318C56.1797 7.21579 55.6409 6.29984 54.5633 5.85533C53.6339 5.54553 52.4485 5.39062 51.0073 5.39062H44.4609ZM44.4609 16.8871V24.8276H51.7751C53.0816 24.8276 54.0986 24.6525 54.826 24.3023C56.146 23.6557 56.806 22.4165 56.806 20.5846C56.806 19.0356 56.1662 17.9714 54.8866 17.3922C54.1727 17.069 53.1692 16.9006 51.8761 16.8871H44.4609ZM52.9873 0.218211C56.6377 0.27209 59.2239 1.32947 60.746 3.39036C61.6619 4.65652 62.1199 6.17187 62.1199 7.93642C62.1199 9.75485 61.6619 11.2163 60.746 12.3209C60.2341 12.9405 59.4798 13.5062 58.483 14.018C60.0051 14.5703 61.1501 15.4459 61.9178 16.6447C62.6991 17.8435 63.0897 19.2982 63.0897 21.0089C63.0897 22.7734 62.6452 24.3561 61.7562 25.757C61.1905 26.6864 60.4833 27.4677 59.6347 28.1008C58.6783 28.8281 57.5469 29.3265 56.2403 29.5959C54.9472 29.8653 53.5396 30 52.0175 30H38.5207V0.218211H52.9873Z" fill="black"/>
</svg>
