<svg width="133" height="16" viewBox="0 0 133 16" fill="none" xmlns="http://www.w3.org/2000/svg">
<path d="M130.172 1.34615H133L129.005 8.42308V12.6846H126.509V8.42308L122.376 1.34615H125.317L127.797 6.28462L130.172 1.34615Z" fill="black"/>
<path d="M97.8381 1.26308V3.10628L99.7302 2.44461L99.9791 3.13778L98.0871 3.72068L99.3318 5.39058L98.6846 5.76868L97.4564 4.06726L96.1618 5.73717L95.5809 5.31181L96.8589 3.72068L95 3.09052L95.2987 2.42886L97.141 3.10628V1.26308H97.8381Z" fill="#4619FB"/>
<path fill-rule="evenodd" clip-rule="evenodd" d="M108.562 9.95385C107.984 10.6462 107.201 10.9923 106.212 10.9923C105.223 10.9923 104.434 10.6462 103.845 9.95385C103.257 9.26154 102.962 8.27692 102.962 7C102.962 5.72308 103.257 4.73846 103.845 4.04615C104.434 3.35385 105.223 3.00769 106.212 3.00769C107.201 3.00769 107.984 3.35641 108.562 4.05385C109.146 4.74615 109.437 5.72821 109.437 7C109.437 8.27692 109.146 9.26154 108.562 9.95385ZM111.648 9.20187C111.359 10.2 110.852 11.025 110.126 11.6769C109.224 12.559 107.919 13 106.212 13C104.505 13 103.2 12.559 102.298 11.6769C101.087 10.5949 100.482 9.0359 100.482 7C100.482 4.92308 101.087 3.3641 102.298 2.32308C103.2 1.44103 104.505 1 106.212 1C107.919 1 109.224 1.44103 110.126 2.32308C110.852 2.95027 111.359 3.76546 111.648 4.76866V9.20187ZM111.648 9.20187C111.838 8.54328 111.933 7.80932 111.933 7C111.933 6.17437 111.838 5.43059 111.648 4.76866V1.34615H115.278L117.45 10.2615L119.606 1.34615H123.196V12.6846H120.87V5.01538C120.87 4.79487 120.873 4.48718 120.878 4.09231C120.884 3.69231 120.886 3.38462 120.886 3.16923L118.625 12.6846H116.202L113.957 3.16923C113.957 3.38462 113.96 3.69231 113.966 4.09231C113.971 4.48718 113.974 4.79487 113.974 5.01538V12.6846H111.648V9.20187Z" fill="black"/>
<path d="M111.648 4.76866V9.20187C111.838 8.54328 111.933 7.80932 111.933 7C111.933 6.17437 111.838 5.43059 111.648 4.76866Z" fill="black"/>
<path d="M5.625 10.6719C6.15104 10.6719 6.58333 10.6172 6.92188 10.5078C7.52604 10.3047 8.02083 9.91406 8.40625 9.33594C8.71354 8.8724 8.9349 8.27865 9.07031 7.55469C9.14844 7.1224 9.1875 6.72135 9.1875 6.35156C9.1875 4.92969 8.90365 3.82552 8.33594 3.03906C7.77344 2.2526 6.86458 1.85938 5.60938 1.85938H2.85156V10.6719H5.625ZM1.28906 0.523438H5.9375C7.51562 0.523438 8.73958 1.08333 9.60938 2.20312C10.3854 3.21354 10.7734 4.50781 10.7734 6.08594C10.7734 7.30469 10.5443 8.40625 10.0859 9.39062C9.27865 11.1302 7.89062 12 5.92188 12H1.28906V0.523438ZM16.0781 3.44531C16.6719 3.44531 17.2474 3.58594 17.8047 3.86719C18.362 4.14323 18.7865 4.5026 19.0781 4.94531C19.3594 5.36719 19.5469 5.85938 19.6406 6.42188C19.724 6.80729 19.7656 7.42188 19.7656 8.26562H13.6328C13.6589 9.11458 13.8594 9.79688 14.2344 10.3125C14.6094 10.8229 15.1901 11.0781 15.9766 11.0781C16.7109 11.0781 17.2969 10.8359 17.7344 10.3516C17.9844 10.0703 18.1615 9.74479 18.2656 9.375H19.6484C19.612 9.68229 19.4896 10.026 19.2812 10.4062C19.0781 10.7812 18.849 11.0885 18.5938 11.3281C18.1667 11.7448 17.638 12.026 17.0078 12.1719C16.6693 12.2552 16.2865 12.2969 15.8594 12.2969C14.8177 12.2969 13.9349 11.9193 13.2109 11.1641C12.487 10.4036 12.125 9.34115 12.125 7.97656C12.125 6.63281 12.4896 5.54167 13.2188 4.70312C13.9479 3.86458 14.901 3.44531 16.0781 3.44531ZM18.3203 7.14844C18.263 6.53906 18.1302 6.05208 17.9219 5.6875C17.5365 5.01042 16.8932 4.67188 15.9922 4.67188C15.3464 4.67188 14.8047 4.90625 14.3672 5.375C13.9297 5.83854 13.6979 6.42969 13.6719 7.14844H18.3203ZM22.3359 9.375C22.3776 9.84375 22.4948 10.2031 22.6875 10.4531C23.0417 10.9062 23.6562 11.1328 24.5312 11.1328C25.0521 11.1328 25.5104 11.0208 25.9062 10.7969C26.3021 10.5677 26.5 10.2161 26.5 9.74219C26.5 9.38281 26.3411 9.10938 26.0234 8.92188C25.8203 8.80729 25.4193 8.67448 24.8203 8.52344L23.7031 8.24219C22.9896 8.0651 22.4635 7.86719 22.125 7.64844C21.5208 7.26823 21.2188 6.74219 21.2188 6.07031C21.2188 5.27865 21.5026 4.63802 22.0703 4.14844C22.6432 3.65885 23.4115 3.41406 24.375 3.41406C25.6354 3.41406 26.5443 3.78385 27.1016 4.52344C27.4505 4.99219 27.6198 5.4974 27.6094 6.03906H26.2812C26.2552 5.72135 26.1432 5.43229 25.9453 5.17188C25.6224 4.80208 25.0625 4.61719 24.2656 4.61719C23.7344 4.61719 23.3307 4.71875 23.0547 4.92188C22.7839 5.125 22.6484 5.39323 22.6484 5.72656C22.6484 6.09115 22.8281 6.38281 23.1875 6.60156C23.3958 6.73177 23.7031 6.84635 24.1094 6.94531L25.0391 7.17188C26.0495 7.41667 26.7266 7.65365 27.0703 7.88281C27.6172 8.24219 27.8906 8.80729 27.8906 9.57812C27.8906 10.3229 27.6068 10.9661 27.0391 11.5078C26.4766 12.0495 25.6172 12.3203 24.4609 12.3203C23.2161 12.3203 22.3333 12.0391 21.8125 11.4766C21.2969 10.9089 21.0208 10.2083 20.9844 9.375H22.3359ZM29.5 3.67188H30.9297V12H29.5V3.67188ZM29.5 0.523438H30.9297V2.11719H29.5V0.523438ZM36.0156 3.48438C36.6719 3.48438 37.2448 3.64583 37.7344 3.96875C38 4.15104 38.2708 4.41667 38.5469 4.76562V3.71094H39.8438V11.3203C39.8438 12.3828 39.6875 13.2214 39.375 13.8359C38.7917 14.9714 37.6901 15.5391 36.0703 15.5391C35.1693 15.5391 34.4115 15.3359 33.7969 14.9297C33.1823 14.5286 32.8385 13.8984 32.7656 13.0391H34.1953C34.263 13.4141 34.3984 13.7031 34.6016 13.9062C34.9193 14.2188 35.4193 14.375 36.1016 14.375C37.1797 14.375 37.8854 13.9948 38.2188 13.2344C38.4167 12.7865 38.5078 11.987 38.4922 10.8359C38.2109 11.263 37.8724 11.5807 37.4766 11.7891C37.0807 11.9974 36.5573 12.1016 35.9062 12.1016C35 12.1016 34.2057 11.7812 33.5234 11.1406C32.8464 10.4948 32.5078 9.42969 32.5078 7.94531C32.5078 6.54427 32.849 5.45052 33.5312 4.66406C34.2188 3.8776 35.0469 3.48438 36.0156 3.48438ZM38.5469 7.78125C38.5469 6.74479 38.3333 5.97656 37.9062 5.47656C37.4792 4.97656 36.9349 4.72656 36.2734 4.72656C35.2839 4.72656 34.6068 5.1901 34.2422 6.11719C34.0495 6.61198 33.9531 7.26042 33.9531 8.0625C33.9531 9.00521 34.1432 9.72396 34.5234 10.2188C34.9089 10.7083 35.4245 10.9531 36.0703 10.9531C37.0807 10.9531 37.7917 10.4974 38.2031 9.58594C38.4323 9.07031 38.5469 8.46875 38.5469 7.78125ZM41.9688 3.63281H43.3047V4.82031C43.7005 4.33073 44.1198 3.97917 44.5625 3.76562C45.0052 3.55208 45.4974 3.44531 46.0391 3.44531C47.2266 3.44531 48.0286 3.85938 48.4453 4.6875C48.6745 5.14062 48.7891 5.78906 48.7891 6.63281V12H47.3594V6.72656C47.3594 6.21615 47.2839 5.80469 47.1328 5.49219C46.8828 4.97135 46.4297 4.71094 45.7734 4.71094C45.4401 4.71094 45.1667 4.74479 44.9531 4.8125C44.5677 4.92708 44.2292 5.15625 43.9375 5.5C43.7031 5.77604 43.5495 6.0625 43.4766 6.35938C43.4089 6.65104 43.375 7.07031 43.375 7.61719V12H41.9688V3.63281ZM54.3594 3.44531C54.9531 3.44531 55.5286 3.58594 56.0859 3.86719C56.6432 4.14323 57.0677 4.5026 57.3594 4.94531C57.6406 5.36719 57.8281 5.85938 57.9219 6.42188C58.0052 6.80729 58.0469 7.42188 58.0469 8.26562H51.9141C51.9401 9.11458 52.1406 9.79688 52.5156 10.3125C52.8906 10.8229 53.4714 11.0781 54.2578 11.0781C54.9922 11.0781 55.5781 10.8359 56.0156 10.3516C56.2656 10.0703 56.4427 9.74479 56.5469 9.375H57.9297C57.8932 9.68229 57.7708 10.026 57.5625 10.4062C57.3594 10.7812 57.1302 11.0885 56.875 11.3281C56.4479 11.7448 55.9193 12.026 55.2891 12.1719C54.9505 12.2552 54.5677 12.2969 54.1406 12.2969C53.099 12.2969 52.2161 11.9193 51.4922 11.1641C50.7682 10.4036 50.4062 9.34115 50.4062 7.97656C50.4062 6.63281 50.7708 5.54167 51.5 4.70312C52.2292 3.86458 53.1823 3.44531 54.3594 3.44531ZM56.6016 7.14844C56.5443 6.53906 56.4115 6.05208 56.2031 5.6875C55.8177 5.01042 55.1745 4.67188 54.2734 4.67188C53.6276 4.67188 53.0859 4.90625 52.6484 5.375C52.2109 5.83854 51.9792 6.42969 51.9531 7.14844H56.6016ZM60.6719 7.91406C60.6719 8.8099 60.862 9.5599 61.2422 10.1641C61.6224 10.7682 62.2318 11.0703 63.0703 11.0703C63.7214 11.0703 64.2552 10.7917 64.6719 10.2344C65.0938 9.67188 65.3047 8.86719 65.3047 7.82031C65.3047 6.76302 65.0885 5.98177 64.6562 5.47656C64.224 4.96615 63.6901 4.71094 63.0547 4.71094C62.3464 4.71094 61.7708 4.98177 61.3281 5.52344C60.8906 6.0651 60.6719 6.86198 60.6719 7.91406ZM62.7891 3.48438C63.4297 3.48438 63.9661 3.61979 64.3984 3.89062C64.6484 4.04688 64.9323 4.32031 65.25 4.71094V0.484375H66.6016V12H65.3359V10.8359C65.0078 11.3516 64.6198 11.724 64.1719 11.9531C63.724 12.1823 63.2109 12.2969 62.6328 12.2969C61.7005 12.2969 60.8932 11.9062 60.2109 11.125C59.5286 10.3385 59.1875 9.29427 59.1875 7.99219C59.1875 6.77344 59.4974 5.71875 60.1172 4.82812C60.7422 3.93229 61.6328 3.48438 62.7891 3.48438ZM73.0312 0.484375H74.3984V4.64844C74.7057 4.2474 75.0729 3.94271 75.5 3.73438C75.9271 3.52083 76.3906 3.41406 76.8906 3.41406C77.9323 3.41406 78.776 3.77344 79.4219 4.49219C80.0729 5.20573 80.3984 6.26042 80.3984 7.65625C80.3984 8.97917 80.0781 10.0781 79.4375 10.9531C78.7969 11.8281 77.9089 12.2656 76.7734 12.2656C76.138 12.2656 75.6016 12.112 75.1641 11.8047C74.9036 11.6224 74.625 11.3307 74.3281 10.9297V12H73.0312V0.484375ZM76.6875 11.0234C77.4479 11.0234 78.0156 10.7214 78.3906 10.1172C78.7708 9.51302 78.9609 8.71615 78.9609 7.72656C78.9609 6.84635 78.7708 6.11719 78.3906 5.53906C78.0156 4.96094 77.4609 4.67188 76.7266 4.67188C76.0859 4.67188 75.5234 4.90885 75.0391 5.38281C74.5599 5.85677 74.3203 6.63802 74.3203 7.72656C74.3203 8.51302 74.4193 9.15104 74.6172 9.64062C74.987 10.5625 75.6771 11.0234 76.6875 11.0234ZM87.2734 3.63281H88.8281C88.6302 4.16927 88.1901 5.39323 87.5078 7.30469C86.9974 8.74219 86.5703 9.91406 86.2266 10.8203C85.4141 12.9557 84.8411 14.2578 84.5078 14.7266C84.1745 15.1953 83.6016 15.4297 82.7891 15.4297C82.5911 15.4297 82.4375 15.4219 82.3281 15.4062C82.224 15.3906 82.0938 15.362 81.9375 15.3203V14.0391C82.1823 14.1068 82.3594 14.1484 82.4688 14.1641C82.5781 14.1797 82.6745 14.1875 82.7578 14.1875C83.0182 14.1875 83.2083 14.1432 83.3281 14.0547C83.4531 13.9714 83.5573 13.8672 83.6406 13.7422C83.6667 13.7005 83.7604 13.487 83.9219 13.1016C84.0833 12.7161 84.2005 12.4297 84.2734 12.2422L81.1797 3.63281H82.7734L85.0156 10.4453L87.2734 3.63281Z" fill="black" fill-opacity="0.5"/>
</svg>
